<!--?xml version="1.0" standalone="no"?-->
              <svg id="sw-js-blob-svg" viewBox="0 0 100 100" xmlns="http://www.w3.org/2000/svg" version="1.1">
                    <defs> 
                        <linearGradient id="sw-gradient" x1="0" x2="1" y1="1" y2="0">
                            <stop id="stop1" stop-color="rgba(248, 117, 55, 1)" offset="0%"></stop>
                            <stop id="stop2" stop-color="rgba(251, 168, 31, 1)" offset="100%"></stop>
                        </linearGradient>
                    </defs>
                <path fill="url(#sw-gradient)" d="M23.6,-37.2C29.7,-32.9,32.9,-24.7,36,-16.8C39.1,-8.9,41.9,-1.2,40.8,5.8C39.7,12.8,34.6,19.2,29,24.4C23.4,29.6,17.2,33.7,10.3,36.3C3.3,38.9,-4.4,40.1,-12.2,39C-20,37.9,-27.9,34.4,-33.6,28.6C-39.3,22.9,-42.9,14.8,-43.4,6.7C-44,-1.5,-41.4,-9.6,-37.8,-17.1C-34.1,-24.6,-29.3,-31.4,-22.9,-35.5C-16.4,-39.6,-8.2,-41,0.3,-41.4C8.8,-41.9,17.6,-41.5,23.6,-37.2Z" width="100%" height="100%" transform="translate(50 50)" stroke-width="0" style="transition: all 0.3s ease 0s;"></path>
              </svg>