<?xml version="1.0" standalone="no"?>
<svg xmlns:xlink="http://www.w3.org/1999/xlink" id="wave" style="transform:rotate(0deg); transition: 0.3s" viewBox="0 0 1440 100" version="1.1" xmlns="http://www.w3.org/2000/svg"><defs><linearGradient id="sw-gradient-0" x1="0" x2="0" y1="1" y2="0"><stop stop-color="rgba(34, 34, 34, 1)" offset="0%"/><stop stop-color="rgba(34, 34, 34, 1)" offset="100%"/></linearGradient></defs><path style="transform:translate(0, 0px); opacity:1" fill="url(#sw-gradient-0)" d="M0,0L80,13.3C160,27,320,53,480,65C640,77,800,73,960,66.7C1120,60,1280,50,1440,41.7C1600,33,1760,27,1920,21.7C2080,17,2240,13,2400,10C2560,7,2720,3,2880,16.7C3040,30,3200,60,3360,71.7C3520,83,3680,77,3840,71.7C4000,67,4160,63,4320,65C4480,67,4640,73,4800,68.3C4960,63,5120,47,5280,36.7C5440,27,5600,23,5760,18.3C5920,13,6080,7,6240,15C6400,23,6560,47,6720,58.3C6880,70,7040,70,7200,73.3C7360,77,7520,83,7680,76.7C7840,70,8000,50,8160,45C8320,40,8480,50,8640,45C8800,40,8960,20,9120,15C9280,10,9440,20,9600,35C9760,50,9920,70,10080,76.7C10240,83,10400,77,10560,61.7C10720,47,10880,23,11040,18.3C11200,13,11360,27,11440,33.3L11520,40L11520,100L11440,100C11360,100,11200,100,11040,100C10880,100,10720,100,10560,100C10400,100,10240,100,10080,100C9920,100,9760,100,9600,100C9440,100,9280,100,9120,100C8960,100,8800,100,8640,100C8480,100,8320,100,8160,100C8000,100,7840,100,7680,100C7520,100,7360,100,7200,100C7040,100,6880,100,6720,100C6560,100,6400,100,6240,100C6080,100,5920,100,5760,100C5600,100,5440,100,5280,100C5120,100,4960,100,4800,100C4640,100,4480,100,4320,100C4160,100,4000,100,3840,100C3680,100,3520,100,3360,100C3200,100,3040,100,2880,100C2720,100,2560,100,2400,100C2240,100,2080,100,1920,100C1760,100,1600,100,1440,100C1280,100,1120,100,960,100C800,100,640,100,480,100C320,100,160,100,80,100L0,100Z"/></svg>