<?xml version="1.0" standalone="no"?>
<svg xmlns:xlink="http://www.w3.org/1999/xlink" id="wave" style="transform:rotate(0deg); transition: 0.3s" viewBox="0 0 1440 100" version="1.1" xmlns="http://www.w3.org/2000/svg"><defs><linearGradient id="sw-gradient-0" x1="0" x2="0" y1="1" y2="0"><stop stop-color="rgba(249, 249, 249, 1)" offset="0%"/><stop stop-color="rgba(249, 249, 249, 1)" offset="100%"/></linearGradient></defs><path style="transform:translate(0, 0px); opacity:1" fill="url(#sw-gradient-0)" d="M0,60L15,60C30,60,60,60,90,51.7C120,43,150,27,180,25C210,23,240,37,270,41.7C300,47,330,43,360,50C390,57,420,73,450,76.7C480,80,510,70,540,65C570,60,600,60,630,61.7C660,63,690,67,720,60C750,53,780,37,810,30C840,23,870,27,900,35C930,43,960,57,990,56.7C1020,57,1050,43,1080,43.3C1110,43,1140,57,1170,53.3C1200,50,1230,30,1260,26.7C1290,23,1320,37,1350,38.3C1380,40,1410,30,1440,36.7C1470,43,1500,67,1530,70C1560,73,1590,57,1620,50C1650,43,1680,47,1710,46.7C1740,47,1770,43,1800,48.3C1830,53,1860,67,1890,73.3C1920,80,1950,80,1980,70C2010,60,2040,40,2070,41.7C2100,43,2130,67,2145,78.3L2160,90L2160,100L2145,100C2130,100,2100,100,2070,100C2040,100,2010,100,1980,100C1950,100,1920,100,1890,100C1860,100,1830,100,1800,100C1770,100,1740,100,1710,100C1680,100,1650,100,1620,100C1590,100,1560,100,1530,100C1500,100,1470,100,1440,100C1410,100,1380,100,1350,100C1320,100,1290,100,1260,100C1230,100,1200,100,1170,100C1140,100,1110,100,1080,100C1050,100,1020,100,990,100C960,100,930,100,900,100C870,100,840,100,810,100C780,100,750,100,720,100C690,100,660,100,630,100C600,100,570,100,540,100C510,100,480,100,450,100C420,100,390,100,360,100C330,100,300,100,270,100C240,100,210,100,180,100C150,100,120,100,90,100C60,100,30,100,15,100L0,100Z"/></svg>