<?xml version="1.0" standalone="no"?>
<svg xmlns:xlink="http://www.w3.org/1999/xlink" id="wave" style="transform:rotate(0deg); transition: 0.3s" viewBox="0 0 1440 140" version="1.1" xmlns="http://www.w3.org/2000/svg"><defs><linearGradient id="sw-gradient-0" x1="0" x2="0" y1="1" y2="0"><stop stop-color="rgba(255, 255, 255, 1)" offset="0%"/><stop stop-color="rgba(255, 255, 255, 1)" offset="100%"/></linearGradient></defs><path style="transform:translate(0, 0px); opacity:1" fill="url(#sw-gradient-0)" d="M0,56L48,53.7C96,51,192,47,288,58.3C384,70,480,98,576,100.3C672,103,768,79,864,77C960,75,1056,93,1152,93.3C1248,93,1344,75,1440,74.7C1536,75,1632,93,1728,91C1824,89,1920,65,2016,53.7C2112,42,2208,42,2304,46.7C2400,51,2496,61,2592,65.3C2688,70,2784,70,2880,77C2976,84,3072,98,3168,86.3C3264,75,3360,37,3456,23.3C3552,9,3648,19,3744,21C3840,23,3936,19,4032,14C4128,9,4224,5,4320,11.7C4416,19,4512,37,4608,53.7C4704,70,4800,84,4896,86.3C4992,89,5088,79,5184,79.3C5280,79,5376,89,5472,77C5568,65,5664,33,5760,37.3C5856,42,5952,84,6048,93.3C6144,103,6240,79,6336,74.7C6432,70,6528,84,6624,81.7C6720,79,6816,61,6864,51.3L6912,42L6912,140L6864,140C6816,140,6720,140,6624,140C6528,140,6432,140,6336,140C6240,140,6144,140,6048,140C5952,140,5856,140,5760,140C5664,140,5568,140,5472,140C5376,140,5280,140,5184,140C5088,140,4992,140,4896,140C4800,140,4704,140,4608,140C4512,140,4416,140,4320,140C4224,140,4128,140,4032,140C3936,140,3840,140,3744,140C3648,140,3552,140,3456,140C3360,140,3264,140,3168,140C3072,140,2976,140,2880,140C2784,140,2688,140,2592,140C2496,140,2400,140,2304,140C2208,140,2112,140,2016,140C1920,140,1824,140,1728,140C1632,140,1536,140,1440,140C1344,140,1248,140,1152,140C1056,140,960,140,864,140C768,140,672,140,576,140C480,140,384,140,288,140C192,140,96,140,48,140L0,140Z"/></svg>